# xmcd
#
# Track frame offsets: 
#        150
#        17314
#        36818
#        55041
#        70728
#        86303
#        104219
#        121801
#        137571
#        155821
#        170059
#        187891
#
# Disc length: 2745 seconds
#
# Revision: 0
# Processed by: cddbd v1.5.2PL0 Copyright (c) Steve Scherf et al.
# Submitted via: ExactAudioCopy v0.99pb4
#
DISCID=970ab70c
DTITLE=Bua Chompoo - All Seasons
DYEAR=2004
DGENRE=Pop
TTITLE0=อย่าทำให้ฉันรักเธอ
TTITLE1=Rain
TTITLE2=แค่อยากจะบอก
TTITLE3=วันไหนก็เหมือนเดิม
TTITLE4=ลม
TTITLE5=มันจะดีจะร้าย
TTITLE6=Sunshine Day
TTITLE7=ดอกไม้ในใจเธอ
TTITLE8=ให้โอกาสได้ไหม
TTITLE9=อยากฟังเพลงรัก
TTITLE10=สายฝน แสงตะวัน ฉันและเธอ (Bonus Track)
TTITLE11=อยากทำให้ฉันรักเธอ (Minus 1)
EXTD=
EXTT0=
EXTT1=
EXTT2=
EXTT3=
EXTT4=
EXTT5=
EXTT6=
EXTT7=
EXTT8=
EXTT9=
EXTT10=
EXTT11=
PLAYORDER=
